<?xml version="1.0" encoding="UTF-8"?>
<svg id="Layer_2" data-name="Layer 2" xmlns="http://www.w3.org/2000/svg" viewBox="0 0 259.26 235.88">
  <defs>
    <style>
      .cls-1 {
        fill: #231f20;
      }
    </style>
  </defs>
  <g id="Layer_1-2" data-name="Layer 1">
    <path class="cls-1" d="M229.67,158.87v-82.75c16.79-4.2,29.36-19.54,29.36-37.48,0-21.3-17.33-38.63-38.63-38.63-18.43,0-33.87,12.97-37.71,30.26h-106.53C72.01,13.38,56.67.75,38.64.75,17.33.75,0,18.08,0,39.38c0,17.94,12.12,33.02,28.77,37.36v83.13C12.11,164.23,0,179.3,0,197.24c0,21.3,17.33,38.63,38.64,38.63,17.83,0,32.88-12.03,37.31-28.61h107.6c4.74,16.08,19.71,27.78,37.08,27.78,21.3,0,38.63-17.33,38.63-38.63,0-18.09-12.67-33.44-29.6-37.54ZM197.92,38.63c0-12.39,10.08-22.47,22.47-22.47s22.47,10.08,22.47,22.47-9.85,22.2-21.96,22.46h-.14c-.12,0-.25,0-.37,0-12.31,0-22.39-10.01-22.47-22.26v-.21ZM16.16,39.38c0-12.39,10.08-22.47,22.48-22.47s22.25,9.9,22.46,22.07v.4c0,12.39-10.07,22.47-22.46,22.47-.32,0-.63,0-.95-.02-12.07-.5-21.53-10.36-21.53-22.45ZM61.1,198.3c-.56,12.01-10.43,21.41-22.45,21.41s-22.48-10.08-22.48-22.47,9.46-21.96,21.55-22.45c.31-.01.61-.02.93-.02,12.39,0,22.47,10.08,22.47,22.47,0,.37,0,.75-.02,1.06ZM182.51,190.09h-105.91c-2.92-15.53-15.15-27.8-30.66-30.78v-81.99c15.21-2.92,27.27-14.78,30.48-29.89h106.36c3.41,14.53,15.06,25.95,29.71,29.02v82.2c-15.39,3.31-27.4,15.81-29.98,31.45ZM220.63,218.88c-11.71,0-21.56-9.13-22.42-20.8-.04-.54-.06-1.11-.06-1.68,0-12.39,10.08-22.47,22.48-22.47h.34c12.2.18,22.13,10.26,22.13,22.47s-10.08,22.47-22.47,22.47Z"/>
  </g>
</svg>