<?xml version="1.0" encoding="UTF-8"?>
<svg id="Layer_1" data-name="Layer 1" xmlns="http://www.w3.org/2000/svg" viewBox="0 0 432 432">
  <defs>
    <style>
      .cls-1 {
        fill: #9d4322;
      }

      .cls-2 {
        fill: #231f20;
        stroke: #231f20;
        stroke-miterlimit: 10;
      }
    </style>
  </defs>
  <g>
    <polygon class="cls-2" points="116.45 175.9 16.26 175.9 16.26 50.68 41.3 25.63 41.3 150.86 91.39 150.86 116.45 175.9"/>
    <polygon class="cls-2" points="191.58 50.68 166.53 75.72 141.49 75.72 141.49 175.9 116.45 150.86 116.45 75.72 66.35 75.72 66.35 50.68 191.58 50.68"/>
    <rect class="cls-2" x="62.14" y="96.56" width="33.47" height="33.46"/>
  </g>
  <polygon class="cls-1" points="260.64 386.4 139.23 386.4 139.23 234.66 169.58 204.31 169.58 356.06 230.28 356.06 260.64 386.4"/>
  <polygon class="cls-1" points="351.68 234.66 321.33 265.01 290.98 265.01 290.98 386.4 260.64 356.06 260.64 265.01 199.94 265.01 199.94 234.66 351.68 234.66"/>
  <rect class="cls-1" x="194.83" y="290.26" width="40.56" height="40.55"/>
</svg>